# xmcd CD database file
#
# Track frame offsets:
#	150
#	24125
#	38557
#	62042
#	76825
#	91240
#	107235
#	130872
#	143735
#	161627
#	173295
#	179397
#
# Disc length: 2539 seconds
#
# Revision: 2
# Processed by: cddbd v1.4PL0 Copyright (c) Steve Scherf et al.
# Submitted via: CDex 1.40Release
#
DISCID=8709e90c
DTITLE=Jimi Hendrix - Best of - The Authentic PPX Studio Recordings
DYEAR=1900
DGENRE=Psychedelic Rock
TTITLE0=Get that feeling
TTITLE1=How would you feel
TTITLE2=Hush now
TTITLE3=No business
TTITLE4=Gotta have a new dress
TTITLE5=Welcome home
TTITLE6=Love, love
TTITLE7=Fool for your baby
TTITLE8=Don't accuse me
TTITLE9=Better times ahead
TTITLE10=Wah wah (instr.)
TTITLE11=The ballad of Jimi
EXTD=ID3G: 93
EXTT0=
EXTT1=
EXTT2=
EXTT3=
EXTT4=
EXTT5=
EXTT6=
EXTT7=
EXTT8=
EXTT9=
EXTT10=
EXTT11=
PLAYORDER=
